<?xml version="1.0" standalone="no"?>
<!DOCTYPE svg PUBLIC "-//W3C//DTD SVG 20010904//EN"
 "http://www.w3.org/TR/2001/REC-SVG-20010904/DTD/svg10.dtd">
<svg version="1.0" xmlns="http://www.w3.org/2000/svg"
 width="2880.000000pt" height="576.000000pt" viewBox="0 0 2880.000000 576.000000"
 preserveAspectRatio="xMidYMid meet">

<g transform="translate(0.000000,576.000000) scale(0.100000,-0.100000)"
fill="#000000" stroke="none">
<path d="M1015 4220 c-33 -4 -116 -9 -185 -10 -69 -1 -147 -5 -173 -8 l-48 -7
-5 -68 c-2 -39 -12 -85 -24 -110 -27 -55 -32 -106 -34 -343 -2 -109 -6 -525
-11 -924 -4 -399 -4 -841 0 -983 l7 -258 29 -14 c24 -13 221 -15 1435 -15
1150 0 1411 2 1427 13 19 13 20 23 18 337 -2 205 -6 329 -13 337 -8 10 -251
13 -1130 15 l-1120 3 -24 28 -24 28 0 983 c0 750 -3 985 -12 994 -13 13 -21
13 -113 2z m-332 -90 c3 -12 0 -20 -7 -20 -18 0 -25 10 -19 26 7 20 20 17 26
-6z"/>
<path d="M1437 4217 l-34 -8 -2 -855 c-2 -768 -1 -854 13 -854 9 0 16 -4 16
-9 0 -5 10 -12 23 -16 12 -4 447 -8 967 -10 986 -3 996 -2 1022 38 4 7 8 150
8 319 l0 307 -31 16 c-26 14 -88 17 -402 21 -909 11 -940 13 -982 54 -19 20
-20 35 -22 501 -1 348 -5 485 -14 495 -9 11 -58 13 -269 11 -142 -1 -274 -6
-293 -10z"/>
<path d="M2327 4208 c-8 -5 -12 -97 -13 -305 0 -164 -4 -310 -8 -324 -5 -19
-1 -39 13 -68 l21 -41 240 0 c131 0 330 5 442 12 225 13 279 13 323 4 47 -10
68 28 77 139 4 50 10 122 14 160 3 42 1 107 -7 160 -7 50 -14 127 -14 172 -1
46 -4 85 -7 88 -9 9 -1068 11 -1081 3z"/>
<path d="M14604 3603 c-60 -3 -76 -8 -104 -32 -33 -27 -34 -30 -23 -64 11 -36
5 -170 -12 -277 -8 -50 -38 -90 -67 -90 -11 0 -30 12 -44 26 -16 19 -39 29
-72 34 -68 11 -208 3 -235 -12 -66 -38 -94 -56 -129 -87 -43 -38 -90 -100
-113 -148 -11 -24 -22 -33 -39 -33 -28 0 -51 -24 -42 -45 3 -8 17 -20 31 -27
31 -14 27 -32 -8 -36 -24 -3 -40 -22 -19 -22 5 0 9 -65 10 -144 0 -120 4 -152
20 -188 10 -24 25 -69 33 -99 22 -87 121 -204 189 -224 14 -4 36 -14 49 -22
13 -9 52 -18 87 -21 53 -4 67 -1 89 16 14 11 48 28 76 37 27 9 62 30 78 46 16
16 36 29 43 29 16 0 58 -36 58 -49 0 -35 225 -48 273 -16 22 14 24 20 16 48
-11 42 -17 549 -6 534 5 -8 7 -4 4 10 -3 11 -2 51 2 87 4 36 5 66 2 66 -4 0
-5 46 -3 103 2 56 4 111 4 122 0 11 -1 36 -1 55 0 19 0 51 0 70 0 19 -2 96 -3
171 l-3 136 -32 27 c-17 14 -32 25 -34 24 -2 -1 -36 -4 -75 -5z m-189 -597
c31 -13 41 -29 36 -58 0 -5 4 -8 9 -8 19 0 10 -19 -11 -22 -31 -4 -47 -33 -32
-56 12 -19 7 -69 -8 -78 -26 -16 12 -54 54 -54 l32 0 -5 -142 c-4 -79 -12
-159 -19 -178 -14 -38 -54 -80 -76 -80 -8 0 -35 -11 -61 -25 -64 -34 -90 -32
-176 15 -82 44 -90 53 -108 130 -7 30 -19 67 -26 82 -19 38 -19 178 1 204 8
10 15 28 15 39 0 18 6 20 55 19 l55 -2 0 47 c0 51 -14 77 -44 83 -17 3 -16 5
5 23 14 13 20 14 15 5 -7 -15 19 15 32 36 21 33 193 46 257 20z m-628 -125 c0
-11 -4 -18 -7 -17 -3 2 -13 6 -23 9 -22 8 -13 27 13 27 12 0 18 -7 17 -19z
m340 3 c2 -7 -12 -14 -34 -16 -46 -6 -48 -5 -27 16 18 18 55 18 61 0z m350 0
c3 -8 1 -20 -6 -27 -14 -14 -47 15 -37 32 10 16 36 13 43 -5z m-347 -38 c0
-20 -16 -36 -36 -36 -23 0 -32 18 -17 33 7 8 53 10 53 3z m360 -26 c-20 -13
-50 -13 -50 0 0 6 15 10 33 10 24 0 28 -3 17 -10z m-4 -47 c-3 -20 -43 -30
-58 -15 -16 16 0 32 32 32 21 0 28 -4 26 -17z"/>
<path d="M14190 2858 c0 -80 18 -92 22 -15 3 45 6 52 26 55 12 2 22 8 22 13 0
12 -21 11 -40 -1 -9 -6 -17 -5 -22 3 -4 7 -8 -18 -8 -55z"/>
<path d="M14301 2911 c-11 -7 -6 -10 19 -13 46 -4 48 -22 3 -34 -33 -8 -38
-13 -38 -39 0 -29 2 -30 48 -31 l47 -2 0 52 c0 29 -5 57 -12 64 -14 14 -47 15
-67 3z m59 -76 c0 -20 -39 -40 -52 -27 -6 6 -8 18 -5 26 8 20 57 21 57 1z"/>
<path d="M15104 3578 c-30 -57 -3 -189 35 -172 9 5 58 8 110 9 l95 0 12 30
c16 38 17 92 1 128 l-12 28 -114 2 -113 2 -14 -27z"/>
<path d="M15738 3588 c-21 -9 -38 -23 -38 -30 0 -7 -1 -325 -2 -707 -3 -690
-3 -694 18 -701 11 -4 63 -9 114 -11 142 -6 140 -8 134 173 -4 142 -2 161 29
214 25 43 40 54 73 54 26 0 38 -6 51 -27 9 -16 27 -39 40 -51 12 -13 29 -46
39 -74 9 -27 23 -52 31 -55 7 -3 25 -27 39 -54 13 -27 28 -49 33 -49 5 0 19
-25 32 -54 15 -38 30 -58 49 -66 14 -6 81 -12 149 -13 101 -2 125 1 137 14 12
14 12 20 -1 52 -8 20 -23 42 -33 49 -10 7 -25 24 -32 38 -7 14 -26 40 -41 57
-15 18 -34 51 -40 74 -7 23 -19 43 -26 46 -7 3 -26 27 -43 54 -16 27 -34 49
-39 49 -5 0 -14 15 -21 33 -7 17 -24 56 -38 86 -20 43 -23 57 -13 70 6 9 19
29 29 46 9 16 32 44 50 62 17 17 32 36 32 42 0 6 13 20 30 33 16 12 32 30 36
40 3 10 28 44 55 75 29 33 49 66 49 80 0 13 7 26 15 29 34 13 11 22 -42 18
-102 -9 -157 -13 -192 -13 -27 -1 -44 -11 -81 -49 -26 -27 -55 -63 -64 -80 -9
-17 -22 -35 -30 -39 -7 -4 -25 -27 -40 -50 -14 -24 -31 -43 -36 -43 -5 0 -18
-17 -29 -38 -23 -45 -54 -68 -104 -77 -59 -11 -61 -3 -58 355 1 173 4 333 7
355 3 30 0 48 -15 70 -20 29 -23 30 -98 30 -51 0 -90 -6 -115 -17z"/>
<path d="M6830 3593 c-30 -3 -58 -10 -62 -16 -11 -17 -10 -1409 1 -1426 12
-19 210 -28 234 -9 15 12 18 35 20 201 l2 189 29 24 c22 20 37 24 70 22 39 -3
42 -6 67 -56 15 -29 36 -63 47 -75 11 -12 23 -32 26 -43 4 -12 20 -35 36 -52
16 -17 33 -46 38 -66 6 -20 24 -50 41 -67 17 -17 31 -36 31 -44 0 -30 31 -37
166 -40 106 -2 139 1 150 12 20 20 18 25 -16 58 -16 15 -35 44 -41 64 -7 20
-25 48 -41 62 -15 15 -28 33 -28 41 0 8 -16 32 -35 54 -20 21 -41 56 -47 76
-6 21 -22 45 -35 53 -12 9 -23 22 -23 29 0 8 -16 29 -35 48 -30 29 -35 41 -37
85 -2 55 -8 46 90 148 21 22 43 52 49 67 7 15 41 60 76 101 49 55 65 82 69
110 3 32 1 38 -18 43 -13 3 -28 3 -33 -1 -22 -13 -120 -23 -154 -15 -27 6 -39
4 -48 -7 -7 -8 -25 -21 -41 -29 -15 -8 -34 -29 -42 -47 -8 -17 -26 -45 -41
-62 -15 -16 -33 -42 -41 -57 -8 -15 -24 -38 -37 -51 -12 -13 -29 -36 -38 -53
-21 -39 -103 -83 -126 -68 -10 6 -21 22 -24 35 -4 13 -7 183 -8 377 -1 223 -5
360 -11 373 -11 20 -35 21 -180 12z"/>
<path d="M12040 3540 c-14 -4 -43 -6 -65 -3 -36 4 -44 0 -81 -36 -31 -30 -45
-54 -54 -91 -7 -28 -22 -65 -35 -84 -13 -19 -30 -58 -39 -88 -9 -30 -25 -67
-37 -82 -12 -15 -29 -58 -39 -97 -10 -38 -24 -77 -32 -85 -7 -9 -24 -39 -38
-68 -24 -50 -26 -51 -68 -50 -69 1 -93 35 -117 161 -4 18 -16 39 -26 47 -12 8
-27 38 -36 72 -8 32 -26 71 -39 87 -13 16 -27 46 -30 68 -4 21 -22 62 -40 91
-19 29 -34 62 -34 74 0 30 -28 60 -69 73 -37 12 -228 15 -280 5 -31 -6 -68
-54 -57 -72 2 -4 7 -300 10 -657 4 -463 9 -651 17 -656 6 -4 57 -7 114 -8 78
-2 105 1 114 13 9 10 12 117 11 416 0 351 2 405 16 436 19 39 16 38 69 20 50
-18 71 -44 84 -107 6 -28 19 -63 29 -78 24 -34 39 -76 47 -129 4 -23 15 -48
24 -55 25 -17 41 -51 41 -86 0 -42 29 -68 84 -76 48 -8 129 1 158 16 9 5 19
27 23 49 4 21 19 55 35 75 17 21 31 54 35 82 4 26 19 65 35 88 15 22 31 60 34
84 10 68 32 104 81 133 41 25 46 26 61 11 8 -9 20 -27 25 -40 5 -13 9 -205 9
-427 0 -299 3 -405 12 -414 18 -18 232 -16 247 1 13 16 16 1314 3 1362 l-8 30
-85 1 c-46 1 -95 -2 -109 -6z"/>
<path d="M19230 3539 c-30 -5 -153 -8 -272 -7 l-218 2 -29 -28 c-35 -34 -49
-92 -28 -113 9 -9 43 -17 83 -20 131 -10 130 -4 127 -553 -1 -239 -2 -440 -2
-447 -2 -28 -45 -53 -92 -53 -42 0 -50 -4 -83 -41 -32 -35 -37 -46 -34 -82 2
-34 7 -42 28 -48 45 -13 636 -10 665 3 21 9 25 18 25 55 0 29 -7 54 -22 76
-13 18 -24 34 -25 36 -2 2 -22 3 -45 3 -58 -3 -94 14 -109 49 -9 22 -12 142
-11 463 1 535 1 536 122 536 41 0 56 5 75 25 35 34 32 72 -10 118 -38 40 -46
41 -145 26z"/>
<path d="M4441 3511 c-14 -25 -18 -1348 -5 -1361 6 -6 177 -10 421 -10 440 -1
453 0 453 48 0 36 -21 116 -35 130 -9 10 -74 13 -273 15 -257 2 -262 2 -284
25 l-23 23 -2 550 c0 302 -4 561 -7 574 -6 25 -8 25 -121 25 -102 0 -115 -2
-124 -19z"/>
<path d="M21043 3487 c-30 -13 -37 -55 -26 -151 8 -69 7 -80 -9 -102 -11 -13
-34 -27 -51 -32 -37 -9 -62 -51 -72 -122 l-7 -46 53 -24 c86 -41 87 -47 76
-547 -1 -34 4 -72 11 -85 6 -13 18 -52 26 -87 12 -53 22 -70 56 -102 23 -22
54 -41 68 -44 15 -3 55 -13 90 -22 47 -11 84 -14 145 -9 205 17 207 18 207 96
0 67 -15 83 -65 69 -111 -31 -206 16 -244 121 -20 54 -21 72 -17 291 3 129 8
246 12 261 13 55 34 63 170 63 100 0 127 3 134 15 13 20 12 80 -1 118 l-11 31
-73 -5 c-41 -3 -99 0 -130 6 -45 9 -60 18 -82 47 -24 31 -28 45 -29 117 -2
128 -3 133 -21 141 -28 12 -186 14 -210 2z"/>
<path d="M5791 3199 c-150 -11 -221 -51 -221 -124 0 -61 25 -81 84 -66 25 6
56 11 69 11 14 0 48 8 77 17 48 15 56 15 118 0 37 -9 86 -19 109 -22 35 -6 50
-16 88 -61 55 -63 55 -83 1 -141 l-33 -36 -153 -8 c-131 -6 -156 -10 -180 -27
-15 -12 -54 -28 -85 -36 -32 -8 -68 -24 -79 -36 -12 -11 -30 -28 -42 -38 -12
-9 -27 -35 -34 -57 -7 -22 -21 -53 -31 -70 -22 -36 -25 -109 -5 -147 8 -14 24
-53 36 -85 26 -70 60 -109 118 -134 24 -10 50 -26 58 -34 11 -10 36 -15 84
-15 55 0 80 6 132 30 34 16 68 30 75 30 6 0 21 12 33 27 18 24 29 28 66 26 35
-1 52 -8 76 -32 18 -17 37 -31 42 -32 53 -5 202 3 217 12 20 10 20 20 17 398
-3 366 -4 388 -23 416 -11 17 -27 47 -37 67 -26 58 -74 93 -178 132 -82 30
-110 35 -200 38 -58 2 -147 0 -199 -3z m334 -555 c28 -11 40 -58 40 -153 -1
-108 -5 -117 -73 -174 -52 -43 -126 -62 -209 -51 -53 6 -62 11 -104 58 -36 38
-49 61 -54 93 -5 38 4 77 24 93 3 3 12 17 20 32 7 15 27 32 44 39 16 7 43 24
59 37 42 35 189 50 253 26z"/>
<path d="M8275 3201 c-50 -4 -83 -14 -115 -32 -25 -15 -57 -29 -72 -33 -28 -6
-123 -93 -150 -136 -21 -33 -31 -123 -22 -198 5 -51 12 -67 43 -100 65 -72
121 -108 191 -121 36 -7 90 -23 120 -36 30 -12 73 -25 95 -29 70 -12 93 -26
115 -70 11 -23 20 -51 20 -61 0 -26 -95 -111 -131 -119 -89 -17 -273 3 -306
33 -11 10 -36 24 -56 30 -20 7 -44 22 -52 34 -8 11 -16 19 -18 16 -36 -49 -39
-60 -27 -132 7 -40 16 -77 21 -83 6 -7 31 -15 57 -19 26 -4 61 -13 77 -21 88
-41 275 -46 364 -10 31 13 79 26 105 30 49 8 70 22 159 110 57 57 66 84 67
200 0 93 -16 153 -42 162 -10 3 -25 18 -33 34 -12 23 -27 33 -73 45 -31 9 -80
26 -108 39 -30 15 -81 27 -126 31 -73 7 -138 32 -138 54 0 5 -9 12 -19 16 -45
14 -50 107 -8 153 66 71 386 61 430 -14 5 -9 26 -14 53 -14 38 0 45 3 40 18
-2 9 -7 43 -11 76 -5 46 -12 63 -33 82 -15 13 -34 24 -42 24 -8 0 -23 7 -34
15 -30 23 -211 37 -341 26z"/>
<path d="M9230 3201 c-70 -5 -95 -12 -145 -39 -32 -18 -63 -38 -67 -45 -12
-19 -9 -82 5 -101 15 -20 32 -19 177 4 91 15 273 7 322 -13 76 -32 108 -152
55 -205 -22 -21 -36 -24 -182 -33 -137 -9 -163 -13 -199 -34 -23 -13 -60 -28
-82 -34 -52 -14 -82 -37 -120 -93 -16 -24 -35 -49 -41 -56 -12 -13 -17 -94
-13 -202 2 -42 35 -120 51 -120 3 0 12 -13 19 -29 9 -22 27 -36 72 -55 33 -14
66 -33 74 -41 26 -25 105 -18 215 20 69 24 107 42 121 60 24 31 62 32 91 3 13
-13 36 -29 52 -37 43 -20 189 -22 233 -4 l35 14 -6 362 c-5 358 -6 363 -32
445 -21 64 -36 92 -70 127 -23 25 -52 45 -62 45 -11 0 -44 13 -74 29 -51 27
-63 29 -199 33 -80 3 -183 2 -230 -1z m346 -562 c32 -27 49 -83 48 -159 -2
-91 -15 -117 -83 -168 -44 -33 -63 -41 -114 -46 -92 -9 -132 4 -183 61 -42 46
-44 51 -44 109 0 75 26 120 87 149 22 11 51 29 62 39 34 31 195 41 227 15z"/>
<path d="M12985 3201 c-90 -8 -125 -16 -125 -31 0 -4 -15 -13 -32 -20 -75 -28
-94 -40 -117 -72 -14 -18 -30 -36 -37 -40 -7 -5 -24 -29 -39 -55 -16 -27 -36
-55 -45 -65 -38 -36 -50 -382 -18 -488 6 -19 21 -48 34 -63 13 -16 24 -34 24
-41 0 -6 24 -34 54 -61 98 -90 134 -114 184 -120 26 -3 74 -16 107 -27 37 -13
96 -23 154 -26 81 -4 104 -1 175 21 44 14 114 31 154 37 65 11 73 14 80 38 9
34 9 161 -1 185 -7 17 -9 17 -37 -7 -17 -14 -50 -30 -73 -36 -23 -6 -49 -15
-57 -20 -48 -32 -84 -40 -183 -40 -99 0 -197 20 -197 40 0 4 -12 11 -26 14
-25 7 -116 93 -135 127 -5 10 -9 40 -9 68 0 42 5 56 29 83 l29 33 327 0 c374
0 352 -6 348 91 -1 36 3 62 10 67 9 7 9 10 0 14 -15 6 -17 43 -3 43 15 0 12
46 -4 59 -8 7 -18 26 -21 42 -4 16 -11 29 -16 29 -4 0 -16 15 -25 33 -22 43
-104 127 -125 127 -9 0 -23 7 -30 17 -8 9 -28 22 -44 29 -40 16 -197 24 -310
15z m162 -151 c70 -37 79 -45 115 -94 23 -32 28 -49 28 -96 0 -93 -4 -95 -235
-95 -230 0 -235 2 -235 92 0 47 4 59 30 85 17 16 34 38 40 47 10 19 121 78
160 84 14 2 28 5 33 6 4 0 33 -13 64 -29z"/>
<path d="M17144 3199 c-107 -6 -126 -10 -167 -33 -25 -15 -49 -36 -52 -47 -9
-26 4 -159 15 -159 4 0 13 7 20 15 34 41 288 70 414 46 65 -12 97 -35 126 -91
15 -31 16 -41 5 -84 -14 -52 -26 -66 -65 -66 -14 0 -86 -5 -160 -10 -111 -9
-141 -15 -175 -34 -22 -13 -56 -27 -75 -31 -47 -10 -81 -36 -134 -101 -41 -49
-45 -60 -51 -126 -4 -40 -2 -108 4 -151 9 -68 15 -82 40 -103 17 -14 32 -33
35 -42 3 -10 33 -28 68 -41 35 -14 70 -31 79 -38 26 -21 146 -17 176 6 13 11
49 27 78 36 30 8 66 27 79 40 31 31 59 32 88 3 42 -42 86 -55 181 -52 63 1 93
6 105 17 16 14 17 48 15 373 -2 406 -12 486 -64 536 -15 14 -32 36 -38 47 -7
11 -24 24 -39 27 -15 4 -52 19 -82 35 -50 25 -66 28 -180 31 -69 2 -179 0
-246 -3z m342 -560 c7 -6 20 -33 29 -60 29 -85 3 -224 -47 -249 -12 -7 -32
-21 -44 -31 -26 -24 -112 -40 -169 -32 -61 8 -135 76 -145 133 -12 66 3 121
43 155 95 82 280 128 333 84z"/>
<path d="M20257 3200 c-31 -6 -58 -18 -74 -34 -14 -14 -31 -26 -38 -26 -7 0
-29 -13 -49 -29 -31 -25 -41 -28 -67 -21 -33 10 -109 66 -109 82 0 6 -10 7
-27 2 -16 -4 -55 -8 -88 -8 -39 -1 -69 -7 -86 -19 l-26 -17 -1 -238 c0 -130
-1 -347 -2 -482 l-2 -245 23 -12 c34 -17 205 -19 224 -3 13 11 15 60 15 348
l0 335 30 52 c21 36 40 57 63 66 17 7 44 21 59 31 34 24 111 24 146 1 15 -10
36 -23 47 -29 11 -6 38 -37 60 -69 l40 -58 3 -330 c1 -225 6 -334 13 -344 8
-9 42 -13 124 -13 94 0 114 3 119 16 3 9 6 192 6 407 0 370 -1 394 -20 427
-10 19 -30 58 -44 87 -14 28 -34 54 -45 58 -11 3 -29 17 -39 30 -30 37 -145
53 -255 35z"/>
<path d="M22157 3199 c-32 -5 -69 -17 -81 -27 -13 -10 -49 -27 -81 -37 -37
-13 -61 -28 -67 -41 -6 -12 -21 -28 -34 -35 -14 -7 -27 -24 -31 -37 -3 -13
-21 -45 -41 -70 -33 -44 -36 -52 -49 -177 -11 -103 -11 -153 -2 -240 11 -116
25 -175 40 -175 4 0 15 -13 23 -29 22 -41 86 -106 124 -125 18 -10 35 -23 38
-31 3 -7 29 -19 57 -25 29 -6 99 -23 157 -37 89 -21 120 -25 200 -20 58 3 107
12 127 22 18 9 60 20 94 26 77 12 95 22 114 59 15 29 20 125 9 168 -6 21 -8
22 -24 7 -10 -9 -50 -27 -89 -40 -39 -13 -83 -32 -98 -42 -22 -15 -49 -18
-154 -18 -113 0 -131 2 -156 21 -15 11 -44 26 -63 34 -34 13 -87 62 -117 107
-23 35 -22 126 3 160 l21 28 334 3 c333 2 334 2 348 24 27 43 5 302 -28 328
-10 8 -26 29 -34 45 -22 41 -93 115 -111 115 -8 0 -29 12 -46 27 -26 21 -46
28 -113 34 -102 10 -195 9 -270 -2z m211 -160 c34 -17 67 -40 73 -52 7 -12 23
-32 38 -44 23 -18 26 -28 26 -82 0 -34 -5 -65 -12 -72 -18 -18 -107 -27 -258
-27 -151 0 -175 5 -194 39 -37 67 22 178 126 235 76 43 121 43 201 3z"/>
<path d="M24440 3193 c-8 -3 -27 -16 -42 -29 -16 -12 -38 -26 -50 -30 -13 -4
-35 -17 -50 -30 -24 -20 -32 -21 -63 -11 -20 6 -51 27 -69 48 l-34 36 -81 -2
c-61 -2 -90 -8 -117 -24 l-36 -22 8 -267 c11 -350 11 -629 0 -668 -7 -29 -6
-32 25 -43 46 -16 204 -15 218 2 7 10 12 120 14 343 l2 329 30 55 c20 36 41
61 63 72 18 9 41 23 51 32 26 23 121 22 152 -3 13 -10 34 -21 46 -25 12 -4 36
-30 54 -57 41 -65 49 -142 48 -479 -1 -135 2 -253 6 -262 6 -16 22 -18 120
-18 87 0 115 3 125 15 9 11 11 109 9 417 l-4 403 -32 49 c-18 27 -33 58 -33
67 0 10 -12 26 -27 36 -16 9 -41 28 -56 42 -27 24 -35 26 -145 28 -64 1 -124
0 -132 -4z"/>
<path d="M26685 3170 c-27 -16 -59 -30 -71 -30 -11 0 -46 -25 -80 -58 -105
-103 -104 -101 -104 -207 0 -52 4 -104 9 -117 8 -20 49 -65 131 -144 19 -18
45 -26 105 -35 44 -6 97 -20 117 -30 21 -11 61 -24 90 -30 97 -21 128 -52 128
-130 0 -35 -52 -97 -97 -115 -68 -29 -296 -10 -341 28 -9 8 -33 21 -52 28 -19
8 -45 25 -57 39 l-21 24 -12 -44 c-11 -41 -8 -135 5 -171 6 -16 74 -38 118
-38 13 0 46 -12 73 -26 48 -26 52 -26 185 -21 98 4 143 9 160 20 13 9 51 22
83 31 33 8 69 24 80 35 12 10 45 41 74 68 52 47 53 50 64 123 7 55 7 97 -2
157 -10 71 -15 84 -38 99 -15 10 -35 27 -44 39 -9 12 -44 30 -80 40 -35 10
-79 27 -98 36 -19 10 -69 21 -110 24 -94 9 -107 14 -153 60 -60 60 -60 65 -20
128 42 67 64 76 183 78 138 2 229 -18 243 -54 5 -15 71 -28 95 -19 13 4 17 98
6 140 -4 14 -30 36 -73 60 l-66 37 -190 3 -190 2 -50 -30z"/>
<path d="M27643 3191 c-17 -5 -39 -16 -49 -25 -9 -10 -27 -24 -40 -33 -24 -16
-31 -52 -18 -100 9 -33 56 -45 99 -27 23 9 88 17 178 21 184 8 243 -7 285 -69
15 -22 31 -46 36 -52 11 -16 -31 -104 -57 -118 -11 -6 -90 -14 -176 -19 -126
-7 -161 -12 -181 -27 -14 -10 -46 -26 -72 -35 -50 -16 -148 -91 -148 -112 0
-7 -10 -25 -22 -40 -17 -22 -22 -44 -26 -127 -4 -88 -3 -102 15 -127 12 -15
32 -50 46 -77 22 -44 34 -55 84 -78 32 -15 69 -33 83 -41 31 -18 139 -20 165
-2 11 7 45 21 75 31 30 10 69 32 87 48 27 26 36 29 65 23 18 -4 50 -23 70 -41
l37 -33 103 6 c57 3 111 10 121 15 17 9 18 33 15 408 -3 350 -5 400 -19 416
-9 11 -24 36 -34 57 -21 44 -66 82 -155 128 l-65 34 -235 2 c-129 1 -249 -2
-267 -6z m470 -569 c15 -14 31 -42 37 -62 8 -33 8 -116 -1 -151 -15 -56 -125
-134 -202 -143 -87 -11 -129 5 -182 70 -54 67 -58 100 -19 174 30 58 32 59
109 100 103 55 207 60 258 12z"/>
<path d="M23068 3159 c-20 -10 -39 -27 -41 -36 -2 -10 -5 -231 -6 -491 l-1
-472 25 -10 c40 -15 220 -13 233 3 7 8 12 129 14 339 l3 326 25 27 c14 15 39
33 55 41 17 8 46 23 65 34 28 15 56 19 135 20 55 0 106 4 113 8 9 6 12 34 10
103 l-3 94 -36 19 -35 19 -55 -25 c-30 -14 -65 -29 -78 -33 -13 -4 -35 -20
-49 -36 -19 -24 -32 -29 -68 -29 -40 0 -47 4 -74 41 -16 23 -32 48 -35 58 -8
25 -148 25 -197 0z"/>
<path d="M25916 3149 l-25 -29 6 -328 5 -327 -38 -58 c-41 -63 -60 -72 -174
-83 -89 -9 -139 7 -177 53 -57 73 -56 61 -54 415 2 409 13 380 -140 377 -107
-2 -108 -3 -117 -28 -5 -15 -8 -202 -6 -420 l3 -393 25 -36 c13 -21 32 -54 42
-75 17 -35 69 -77 97 -77 7 0 23 -9 37 -20 31 -24 73 -25 165 -4 106 24 157
45 187 76 33 35 49 35 90 -1 18 -15 42 -33 54 -39 29 -15 203 -17 234 -3 l25
12 2 480 2 480 -32 29 c-34 31 -65 37 -98 20 -13 -7 -31 -8 -54 -1 -32 8 -37
7 -59 -20z"/>
<path d="M15111 3144 c-7 -16 -11 -64 -10 -123 1 -63 -2 -96 -10 -99 -16 -5
-15 -132 2 -132 9 0 11 -66 9 -302 -2 -167 0 -313 3 -325 5 -22 9 -23 125 -23
65 0 121 4 124 9 6 9 9 608 4 631 -2 9 12 12 50 13 l52 1 0 58 c0 53 -2 58
-24 64 -31 7 -61 2 -55 -11 2 -5 16 -8 32 -6 42 4 33 -23 -12 -35 l-40 -11 0
139 c-1 77 -5 147 -10 157 -8 15 -27 18 -119 20 l-108 2 -13 -27z m329 -309
c0 -20 -34 -37 -48 -23 -6 6 -8 17 -5 24 7 19 53 18 53 -1z"/>
<path d="M13600 2880 c0 -53 4 -90 10 -90 6 0 10 11 10 23 0 39 13 40 41 5 15
-18 31 -30 34 -26 4 4 -5 21 -19 39 l-27 32 27 28 c38 40 18 37 -23 -3 l-33
-32 0 57 c0 31 -4 57 -10 57 -6 0 -10 -37 -10 -90z"/>
<path d="M14790 2946 c-5 -13 -15 -27 -22 -30 -10 -5 -10 -7 0 -12 7 -3 12
-26 12 -60 0 -41 4 -54 15 -54 12 0 15 13 15 55 0 42 3 55 15 55 8 0 15 5 15
10 0 6 -7 10 -15 10 -23 0 -18 30 8 40 21 8 21 9 -6 9 -20 1 -30 -5 -37 -23z"/>
<path d="M14941 2881 c-34 -89 -35 -91 -22 -91 5 0 13 10 17 23 9 29 19 34 54
29 22 -3 32 -11 36 -28 3 -13 12 -24 19 -24 15 0 -46 162 -63 168 -6 2 -24
-33 -41 -77z m58 -3 c1 -12 -6 -18 -19 -18 -23 0 -24 8 -9 47 10 26 12 27 19
8 5 -11 9 -28 9 -37z"/>
</g>
</svg>
